<?xml version="1.0" encoding="UTF-8" standalone="no"?>
<!DOCTYPE svg PUBLIC "-//W3C//DTD SVG 1.1//EN" "http://www.w3.org/Graphics/SVG/1.1/DTD/svg11.dtd">
<svg width="100%" height="100%" viewBox="0 0 468 421" version="1.1" xmlns="http://www.w3.org/2000/svg" xmlns:xlink="http://www.w3.org/1999/xlink" xml:space="preserve" xmlns:serif="http://www.serif.com/" style="fill-rule:evenodd;clip-rule:evenodd;stroke-linejoin:round;stroke-miterlimit:1.41421;">
    <g transform="matrix(1.84098,0,0,1.2679,-24.3519,-164.928)">
        <rect x="13.228" y="130.079" width="254.213" height="332.045" style="fill:rgb(227,242,253);"/>
    </g>
    <g transform="matrix(0.548177,0,0,0.548177,13.7883,154.974)">
        <path d="M420.717,217.486C475.952,217.486 520.717,172.72 520.717,117.486C520.717,62.251 475.952,17.486 420.717,17.486C365.483,17.486 320.718,62.251 320.718,117.486C320.718,172.72 365.483,217.486 420.717,217.486ZM490.717,242.485L477.671,242.485C460.327,250.454 441.03,254.985 420.717,254.985C400.405,254.985 381.187,250.454 363.764,242.485L350.718,242.485C292.749,242.485 245.718,289.517 245.718,347.486L245.718,379.985C245.718,400.688 262.515,417.485 283.218,417.485L558.217,417.485C578.92,417.485 595.717,400.688 595.717,379.985L595.717,347.486C595.717,289.517 548.686,242.485 490.717,242.485Z" style="fill:rgb(144,202,249);fill-rule:nonzero;"/>
    </g>
    <g transform="matrix(0.66359,-0.401987,0.401987,0.66359,-175.104,223.348)">
        <path d="M363.871,40.285C340.487,40.285 325.341,49.866 313.45,66.953C311.292,70.052 311.957,74.302 314.966,76.584L327.605,86.167C330.643,88.47 334.967,87.932 337.347,84.951C344.685,75.758 350.129,70.464 361.592,70.464C370.605,70.464 381.753,76.265 381.753,85.004C381.753,91.612 376.299,95.005 367.399,99.994C357.021,105.812 343.288,113.053 343.288,131.167L343.288,134.035C343.288,137.918 346.436,141.066 350.319,141.066L371.551,141.066C375.435,141.066 378.583,137.918 378.583,134.035L378.583,132.343C378.583,119.787 415.282,119.264 415.282,85.285C415.282,59.696 388.739,40.285 363.871,40.285ZM360.936,149.697C349.745,149.697 340.641,158.801 340.641,169.991C340.641,181.181 349.745,190.285 360.936,190.285C372.126,190.285 381.23,181.181 381.23,169.99C381.23,158.8 372.126,149.697 360.936,149.697Z" style="fill:rgb(255,204,128);fill-rule:nonzero;"/>
    </g>
    <g transform="matrix(0.763687,0.136848,-0.136848,0.763687,-57.7271,-39.9754)">
        <path d="M363.871,40.285C340.487,40.285 325.341,49.866 313.45,66.953C311.292,70.052 311.957,74.302 314.966,76.584L327.605,86.167C330.643,88.47 334.967,87.932 337.347,84.951C344.685,75.758 350.129,70.464 361.592,70.464C370.605,70.464 381.753,76.265 381.753,85.004C381.753,91.612 376.299,95.005 367.399,99.994C357.021,105.812 343.288,113.053 343.288,131.167L343.288,134.035C343.288,137.918 346.436,141.066 350.319,141.066L371.551,141.066C375.435,141.066 378.583,137.918 378.583,134.035L378.583,132.343C378.583,119.787 415.282,119.264 415.282,85.285C415.282,59.696 388.739,40.285 363.871,40.285ZM360.936,149.697C349.745,149.697 340.641,158.801 340.641,169.991C340.641,181.181 349.745,190.285 360.936,190.285C372.126,190.285 381.23,181.181 381.23,169.99C381.23,158.8 372.126,149.697 360.936,149.697Z" style="fill:rgb(255,167,38);fill-rule:nonzero;"/>
    </g>
</svg>
