<?xml version="1.0" encoding="UTF-8" standalone="no"?>
<!DOCTYPE svg PUBLIC "-//W3C//DTD SVG 1.1//EN" "http://www.w3.org/Graphics/SVG/1.1/DTD/svg11.dtd">
<svg width="100%" height="100%" viewBox="0 0 468 768" version="1.1" xmlns="http://www.w3.org/2000/svg" xmlns:xlink="http://www.w3.org/1999/xlink" xml:space="preserve" xmlns:serif="http://www.serif.com/" style="fill-rule:evenodd;clip-rule:evenodd;stroke-linejoin:round;stroke-miterlimit:1.41421;">
    <g transform="matrix(1.84098,0,0,2.31294,-24.3519,-300.866)">
        <rect x="13.228" y="130.079" width="254.213" height="332.045" style="fill:rgb(227,242,253);"/>
    </g>
    <g transform="matrix(0.548177,0,0,0.548177,13.7883,328.474)">
        <path d="M420.717,217.486C475.952,217.486 520.717,172.72 520.717,117.486C520.717,62.251 475.952,17.486 420.717,17.486C365.483,17.486 320.718,62.251 320.718,117.486C320.718,172.72 365.483,217.486 420.717,217.486ZM490.717,242.485L477.671,242.485C460.327,250.454 441.03,254.985 420.717,254.985C400.405,254.985 381.187,250.454 363.764,242.485L350.718,242.485C292.749,242.485 245.718,289.517 245.718,347.486L245.718,379.985C245.718,400.688 262.515,417.485 283.218,417.485L558.217,417.485C578.92,417.485 595.717,400.688 595.717,379.985L595.717,347.486C595.717,289.517 548.686,242.485 490.717,242.485Z" style="fill:rgb(144,202,249);fill-rule:nonzero;"/>
    </g>
    <g transform="matrix(1,0,0,1,-158.801,30.6256)">
        <path d="M391.498,169.056L330.951,169.056L330.951,143.885C330.951,134.217 338.691,126.185 348.359,126.087C358.124,125.989 366.108,133.924 366.108,143.665L366.108,147.571C366.108,150.818 368.72,153.431 371.967,153.431L379.779,153.431C383.027,153.431 385.639,150.818 385.639,147.571L385.639,143.665C385.639,123.157 368.915,106.483 348.408,106.556C327.9,106.629 311.42,123.524 311.42,144.031L311.42,169.056L305.561,169.056C299.091,169.056 293.842,174.305 293.842,180.775L293.842,219.837C293.842,226.307 299.091,231.556 305.561,231.556L391.498,231.556C397.968,231.556 403.217,226.307 403.217,219.837L403.217,180.775C403.217,174.305 397.968,169.056 391.498,169.056Z" style="fill:rgb(144,164,174);fill-rule:nonzero;"/>
    </g>
    <g transform="matrix(0.0933423,-0.995634,0.995634,0.0933423,-128.496,641.304)">
        <path d="M341.679,168.556L296.448,213.784L294.381,232.374C294.104,234.861 296.205,236.964 298.692,236.689L317.27,234.638L362.515,189.393L341.679,168.556ZM375.403,165.454L365.619,155.671C362.568,152.619 357.618,152.619 354.566,155.671L345.362,164.875L366.199,185.711L375.403,176.507C378.455,173.454 378.455,168.506 375.403,165.454Z" style="fill:rgb(207,216,220);fill-rule:nonzero;"/>
    </g>
    <g transform="matrix(0.986263,0.165181,-0.165181,0.986263,-17.9581,84.8069)">
        <path d="M362.167,93.889C362.167,95.328 363.332,96.494 364.771,96.494L422.062,96.494C423.501,96.494 424.666,95.328 424.666,93.889L424.666,87.379C424.666,85.941 423.501,84.775 422.062,84.775L364.771,84.775C363.332,84.775 362.167,85.941 362.167,87.379L362.167,93.889ZM364.771,122.535L422.062,122.535C423.501,122.535 424.666,121.369 424.666,119.931L424.666,113.421C424.666,111.982 423.501,110.816 422.062,110.816L364.771,110.816C363.332,110.816 362.167,111.982 362.167,113.421L362.167,119.931C362.167,121.369 363.332,122.535 364.771,122.535ZM364.771,148.577L422.062,148.577C423.501,148.577 424.666,147.411 424.666,145.973L424.666,139.462C424.666,138.024 423.501,136.858 422.062,136.858L364.771,136.858C363.332,136.858 362.167,138.024 362.167,139.462L362.167,145.973C362.167,147.411 363.332,148.577 364.771,148.577ZM343.937,98.447L354.354,98.447C355.792,98.447 356.958,97.281 356.958,95.843L356.958,85.426C356.958,83.988 355.792,82.822 354.354,82.822L343.937,82.822C342.499,82.822 341.333,83.988 341.333,85.426L341.333,95.843C341.333,97.281 342.499,98.447 343.937,98.447ZM343.937,124.488L354.354,124.488C355.792,124.488 356.958,123.322 356.958,121.884L356.958,111.467C356.958,110.029 355.792,108.863 354.354,108.863L343.937,108.863C342.499,108.863 341.333,110.029 341.333,111.467L341.333,121.884C341.333,123.322 342.499,124.488 343.937,124.488ZM343.937,150.53L354.354,150.53C355.792,150.53 356.958,149.364 356.958,147.926L356.958,137.509C356.958,136.071 355.792,134.905 354.354,134.905L343.937,134.905C342.499,134.905 341.333,136.071 341.333,137.509L341.333,147.926C341.333,149.364 342.499,150.53 343.937,150.53Z" style="fill:rgb(207,216,220);fill-rule:nonzero;"/>
    </g>
</svg>
